<?xml version="1.0" encoding="utf-8"?>
<!-- Generator: Adobe Illustrator 23.0.0, SVG Export Plug-In . SVG Version: 6.00 Build 0)  -->
<svg version="1.1" id="Layer_1" xmlns="http://www.w3.org/2000/svg" xmlns:xlink="http://www.w3.org/1999/xlink" x="0px" y="0px"
	 viewBox="0 0 595.28 595.28" style="enable-background:new 0 0 595.28 595.28;" xml:space="preserve">
<style type="text/css">
	.st0{fill:url(#SVGID_1_);}
	.st1{fill:#FFFFFF;}
	.st2{clip-path:url(#SVGID_3_);}
	.st3{clip-path:url(#SVGID_5_);fill:#FFFFFF;}
	.st4{clip-path:url(#SVGID_7_);}
	.st5{clip-path:url(#SVGID_9_);fill:#FFFFFF;}
	.st6{clip-path:url(#SVGID_11_);}
	.st7{clip-path:url(#SVGID_13_);fill:#FFFFFF;}
	.st8{clip-path:url(#SVGID_15_);}
	.st9{clip-path:url(#SVGID_17_);fill:#FFFFFF;}
	.st10{clip-path:url(#SVGID_19_);}
	.st11{clip-path:url(#SVGID_21_);fill:#FFFFFF;}
	.st12{clip-path:url(#SVGID_23_);}
	.st13{clip-path:url(#SVGID_25_);fill:#FFFFFF;}
	.st14{clip-path:url(#SVGID_27_);}
	.st15{clip-path:url(#SVGID_29_);fill:#FFFFFF;}
	.st16{clip-path:url(#SVGID_31_);}
	.st17{clip-path:url(#SVGID_33_);fill:#FFFFFF;}
</style>
<linearGradient id="SVGID_1_" gradientUnits="userSpaceOnUse" x1="-9.2586" y1="298.598" x2="603.7192" y2="298.598">
	<stop  offset="0" style="stop-color:#E32228"/>
	<stop  offset="1" style="stop-color:#EC1E24"/>
</linearGradient>
<rect x="-9.26" y="-7.89" class="st0" width="612.98" height="612.98"/>
<g>
	<polygon class="st1" points="224.61,225.17 186.68,225.17 162.92,332.8 106.82,332.8 99.68,347.03 96.09,354.13 93.03,359.83 
		194.72,359.79 220.55,243.61 220.5,243.61 	"/>
	<polygon class="st1" points="437.23,251.17 442.1,246.19 480.85,246.19 483.6,243.37 483.6,243.37 487.91,238.95 449.59,238.95 
		454.51,233.97 492.77,233.97 501.43,225.1 347.83,225.18 328.33,261.93 386.06,261.93 366.38,342.39 366.35,342.39 362.44,359.79 
		399.42,359.79 423.15,261.93 465.43,261.93 475.98,251.17 	"/>
	<path class="st1" d="M344.01,293.71l-26.16-7.7c0,0-3.62,20.97-6.92,21.58c0,0-24.08-18.77-33.15-34.66
		c-1.46-2.15-2.51-4.61-3.03-7.28c-0.17-0.76-0.31-1.5-0.36-2.22c-0.05-0.63-0.03-1.26,0.04-1.87c0.24-10.27,8.42-18.52,18.49-18.52
		c8.37,0,16.61,3.96,16.03,11.79c0.15,0.21-0.48,7.1-0.35,7.32l19.83-37.02h-84.5c0,0,0.04,0.12-3.63,16.65c0,0-4,18.63,13.15,38.36
		c0,0-51.04,32.49-22.33,67c0,0,14.42,13.76,43.03,13.2c0,0,19.06,0,36.77-8.64l7.27,8.05h34.34l-22.67-28.4
		C329.88,331.35,341.61,314.69,344.01,293.71z M258.58,330.72c-13.54-15.1,11.13-27.75,12.64-29.6l24.22,29.6
		C295.44,330.72,272.12,345.85,258.58,330.72z"/>
</g>
<g>
	<g>
		<g>
			<defs>
				<path id="SVGID_2_" d="M123.68,499.7h7.1l8.8,17.35l8.71-17.35h7.06v28.24h-5.73v-19.08l-8.03,16.22h-4.12l-8.07-16.22v19.08
					h-5.73V499.7z"/>
			</defs>
			<use xlink:href="#SVGID_2_"  style="overflow:visible;fill:#FFFFFF;"/>
			<clipPath id="SVGID_3_">
				<use xlink:href="#SVGID_2_"  style="overflow:visible;"/>
			</clipPath>
			<g class="st2">
				<path class="st1" d="M123.68,499.7v28.24V499.7z"/>
			</g>
			<g class="st2">
				<rect x="123.68" y="499.7" class="st1" width="3.52" height="28.24"/>
			</g>
			<g class="st2">
				<rect x="127.2" y="499.7" class="st1" width="3.52" height="28.24"/>
			</g>
			<g class="st2">
				<rect x="130.71" y="499.7" class="st1" width="3.52" height="28.24"/>
			</g>
			<g class="st2">
				<rect x="134.23" y="499.7" class="st1" width="3.52" height="28.24"/>
			</g>
			<g class="st2">
				<rect x="137.75" y="499.7" class="st1" width="3.52" height="28.24"/>
			</g>
			<g class="st2">
				<rect x="141.27" y="499.7" class="st1" width="3.52" height="28.24"/>
			</g>
			<g class="st2">
				<rect x="144.79" y="499.7" class="st1" width="3.52" height="28.24"/>
			</g>
			<g class="st2">
				<rect x="148.31" y="499.7" class="st1" width="3.52" height="28.24"/>
			</g>
			<g class="st2">
				<rect x="151.83" y="499.7" class="st1" width="3.52" height="28.24"/>
			</g>
			<g class="st2">
				<path class="st1" d="M155.35,527.95V499.7V527.95z"/>
			</g>
		</g>
		<g>
			<g>
				<defs>
					<path id="SVGID_4_" d="M155.35,528.84h-5.73c-0.5,0-0.9-0.4-0.9-0.9V512.7l-6.33,12.78c-0.15,0.31-0.46,0.5-0.8,0.5h-4.12
						c-0.34,0-0.65-0.19-0.8-0.5l-6.37-12.8v15.27c0,0.5-0.4,0.9-0.9,0.9h-5.73c-0.5,0-0.9-0.4-0.9-0.9V499.7c0-0.5,0.4-0.9,0.9-0.9
						h7.1c0.34,0,0.65,0.19,0.8,0.49l7.99,15.76l7.92-15.76c0.15-0.3,0.46-0.49,0.8-0.49h7.06c0.5,0,0.9,0.4,0.9,0.9v28.24
						C156.24,528.44,155.84,528.84,155.35,528.84z M150.51,527.05h3.94V500.6h-5.61l-8.47,16.85c-0.15,0.3-0.46,0.49-0.8,0.49
						c0,0,0,0,0,0c-0.34,0-0.65-0.19-0.8-0.49l-8.55-16.86h-5.65v26.45h3.94v-18.19c0-0.42,0.29-0.78,0.69-0.87
						c0.4-0.09,0.82,0.1,1.01,0.47l7.82,15.72h3l7.78-15.72c0.18-0.37,0.6-0.57,1.01-0.47c0.41,0.1,0.69,0.46,0.69,0.87V527.05z"/>
				</defs>
				<use xlink:href="#SVGID_4_"  style="overflow:visible;fill:#FFFFFF;"/>
				<clipPath id="SVGID_5_">
					<use xlink:href="#SVGID_4_"  style="overflow:visible;"/>
				</clipPath>
				<rect x="124.57" y="500.6" class="st3" width="1.93" height="26.45"/>
				<rect x="126.5" y="500.6" class="st3" width="3.72" height="26.45"/>
				<rect x="130.22" y="500.6" class="st3" width="3.72" height="26.45"/>
				<rect x="133.93" y="500.6" class="st3" width="3.72" height="26.45"/>
				<rect x="137.65" y="500.6" class="st3" width="3.72" height="26.45"/>
				<rect x="141.37" y="500.6" class="st3" width="3.72" height="26.45"/>
				<rect x="145.09" y="500.6" class="st3" width="3.72" height="26.45"/>
				<rect x="148.81" y="500.6" class="st3" width="3.72" height="26.45"/>
				<rect x="152.53" y="500.6" class="st3" width="1.93" height="26.45"/>
				<path class="st3" d="M122.78,498.81v30.03V498.81z"/>
				<rect x="122.78" y="498.81" class="st3" width="3.72" height="30.03"/>
				<rect x="126.5" y="498.81" class="st3" width="3.72" height="30.03"/>
				<rect x="130.22" y="498.81" class="st3" width="3.72" height="30.03"/>
				<rect x="133.93" y="498.81" class="st3" width="3.72" height="30.03"/>
				<rect x="137.65" y="498.81" class="st3" width="3.72" height="30.03"/>
				<rect x="141.37" y="498.81" class="st3" width="3.72" height="30.03"/>
				<rect x="145.09" y="498.81" class="st3" width="3.72" height="30.03"/>
				<rect x="148.81" y="498.81" class="st3" width="3.72" height="30.03"/>
				<rect x="152.53" y="498.81" class="st3" width="3.72" height="30.03"/>
				<path class="st3" d="M156.24,528.84v-30.03V528.84z"/>
			</g>
		</g>
	</g>
	<g>
		<g>
			<defs>
				<path id="SVGID_6_" d="M201.42,527.95l-2.22-5.49h-13.07l-2.22,5.49h-6.58l12.26-28.24h6.58l12.06,28.24H201.42z M188.23,517.34
					h8.92l-4.44-10.97L188.23,517.34z"/>
			</defs>
			<use xlink:href="#SVGID_6_"  style="overflow:visible;fill:#FFFFFF;"/>
			<clipPath id="SVGID_7_">
				<use xlink:href="#SVGID_6_"  style="overflow:visible;"/>
			</clipPath>
			<g class="st4">
				<rect x="188.23" y="506.36" class="st1" width="2.84" height="10.97"/>
			</g>
			<g class="st4">
				<rect x="191.07" y="506.36" class="st1" width="3.43" height="10.97"/>
			</g>
			<g class="st4">
				<rect x="194.5" y="506.36" class="st1" width="2.64" height="10.97"/>
			</g>
			<g class="st4">
				<path class="st1" d="M177.34,499.7v28.24V499.7z"/>
			</g>
			<g class="st4">
				<rect x="177.34" y="499.7" class="st1" width="3.43" height="28.24"/>
			</g>
			<g class="st4">
				<rect x="180.77" y="499.7" class="st1" width="3.43" height="28.24"/>
			</g>
			<g class="st4">
				<rect x="184.2" y="499.7" class="st1" width="3.43" height="28.24"/>
			</g>
			<g class="st4">
				<rect x="187.64" y="499.7" class="st1" width="3.43" height="28.24"/>
			</g>
			<g class="st4">
				<rect x="191.07" y="499.7" class="st1" width="3.43" height="28.24"/>
			</g>
			<g class="st4">
				<rect x="194.5" y="499.7" class="st1" width="3.43" height="28.24"/>
			</g>
			<g class="st4">
				<rect x="197.94" y="499.7" class="st1" width="3.43" height="28.24"/>
			</g>
			<g class="st4">
				<rect x="201.37" y="499.7" class="st1" width="3.43" height="28.24"/>
			</g>
			<g class="st4">
				<rect x="204.81" y="499.7" class="st1" width="3.43" height="28.24"/>
			</g>
			<g class="st4">
				<path class="st1" d="M208.24,527.95V499.7V527.95z"/>
			</g>
		</g>
		<g>
			<g>
				<defs>
					<path id="SVGID_8_" d="M208.24,528.84h-6.82c-0.37,0-0.69-0.22-0.83-0.56l-1.99-4.93h-11.86l-1.99,4.93
						c-0.14,0.34-0.47,0.56-0.83,0.56h-6.58c-0.3,0-0.58-0.15-0.75-0.4c-0.17-0.25-0.19-0.57-0.07-0.85l12.26-28.24
						c0.14-0.33,0.47-0.54,0.82-0.54h6.58c0.36,0,0.68,0.21,0.82,0.54l12.06,28.24c0.12,0.28,0.09,0.59-0.08,0.85
						C208.82,528.69,208.54,528.84,208.24,528.84z M202.03,527.05h4.86l-11.3-26.45h-5.4l-11.49,26.45h4.6l1.99-4.93
						c0.14-0.34,0.47-0.56,0.83-0.56h13.07c0.37,0,0.69,0.22,0.83,0.56L202.03,527.05z M197.14,518.23h-8.92
						c-0.3,0-0.58-0.15-0.74-0.4c-0.17-0.25-0.2-0.56-0.09-0.84l4.48-10.97c0.14-0.34,0.47-0.56,0.83-0.56c0,0,0,0,0,0
						c0.36,0,0.69,0.22,0.83,0.56l4.44,10.97c0.11,0.28,0.08,0.59-0.09,0.84C197.72,518.08,197.44,518.23,197.14,518.23z
						 M189.56,516.44h6.25l-3.11-7.7L189.56,516.44z"/>
				</defs>
				<use xlink:href="#SVGID_8_"  style="overflow:visible;fill:#FFFFFF;"/>
				<clipPath id="SVGID_9_">
					<use xlink:href="#SVGID_8_"  style="overflow:visible;"/>
				</clipPath>
				<rect x="189.56" y="508.74" class="st5" width="1.41" height="7.7"/>
				<rect x="190.97" y="508.74" class="st5" width="3.63" height="7.7"/>
				<rect x="194.6" y="508.74" class="st5" width="1.21" height="7.7"/>
				<rect x="187.29" y="505.47" class="st5" width="0.05" height="12.77"/>
				<rect x="187.34" y="505.47" class="st5" width="3.63" height="12.77"/>
				<rect x="190.97" y="505.47" class="st5" width="3.63" height="12.77"/>
				<rect x="194.6" y="505.47" class="st5" width="3.48" height="12.77"/>
				<rect x="178.7" y="500.6" class="st5" width="1.37" height="26.45"/>
				<rect x="180.07" y="500.6" class="st5" width="3.63" height="26.45"/>
				<rect x="183.7" y="500.6" class="st5" width="3.63" height="26.45"/>
				<rect x="187.34" y="500.6" class="st5" width="3.63" height="26.45"/>
				<rect x="190.97" y="500.6" class="st5" width="3.63" height="26.45"/>
				<rect x="194.6" y="500.6" class="st5" width="3.63" height="26.45"/>
				<rect x="198.24" y="500.6" class="st5" width="3.63" height="26.45"/>
				<rect x="201.87" y="500.6" class="st5" width="3.63" height="26.45"/>
				<rect x="205.5" y="500.6" class="st5" width="1.38" height="26.45"/>
				<rect x="176.39" y="498.81" class="st5" width="0.05" height="30.03"/>
				<rect x="176.44" y="498.81" class="st5" width="3.63" height="30.03"/>
				<rect x="180.07" y="498.81" class="st5" width="3.63" height="30.03"/>
				<rect x="183.7" y="498.81" class="st5" width="3.63" height="30.03"/>
				<rect x="187.34" y="498.81" class="st5" width="3.63" height="30.03"/>
				<rect x="190.97" y="498.81" class="st5" width="3.63" height="30.03"/>
				<rect x="194.6" y="498.81" class="st5" width="3.63" height="30.03"/>
				<rect x="198.24" y="498.81" class="st5" width="3.63" height="30.03"/>
				<rect x="201.87" y="498.81" class="st5" width="3.63" height="30.03"/>
				<rect x="205.5" y="498.81" class="st5" width="3.63" height="30.03"/>
				<rect x="209.14" y="498.81" class="st5" width="0.05" height="30.03"/>
			</g>
		</g>
	</g>
	<g>
		<g>
			<defs>
				<path id="SVGID_10_" d="M230.15,499.7h6.37v22.67h12.1v5.57h-18.48V499.7z"/>
			</defs>
			<use xlink:href="#SVGID_10_"  style="overflow:visible;fill:#FFFFFF;"/>
			<clipPath id="SVGID_11_">
				<use xlink:href="#SVGID_10_"  style="overflow:visible;"/>
			</clipPath>
			<g class="st6">
				<path class="st1" d="M230.15,499.7v28.24V499.7z"/>
			</g>
			<g class="st6">
				<rect x="230.15" y="499.7" class="st1" width="2.05" height="28.24"/>
			</g>
			<g class="st6">
				<rect x="232.2" y="499.7" class="st1" width="2.05" height="28.24"/>
			</g>
			<g class="st6">
				<rect x="234.25" y="499.7" class="st1" width="2.05" height="28.24"/>
			</g>
			<g class="st6">
				<rect x="236.31" y="499.7" class="st1" width="2.05" height="28.24"/>
			</g>
			<g class="st6">
				<rect x="238.36" y="499.7" class="st1" width="2.05" height="28.24"/>
			</g>
			<g class="st6">
				<rect x="240.41" y="499.7" class="st1" width="2.05" height="28.24"/>
			</g>
			<g class="st6">
				<rect x="242.47" y="499.7" class="st1" width="2.05" height="28.24"/>
			</g>
			<g class="st6">
				<rect x="244.52" y="499.7" class="st1" width="2.05" height="28.24"/>
			</g>
			<g class="st6">
				<rect x="246.57" y="499.7" class="st1" width="2.05" height="28.24"/>
			</g>
			<g class="st6">
				<path class="st1" d="M248.62,527.95V499.7V527.95z"/>
			</g>
		</g>
		<g>
			<g>
				<defs>
					<path id="SVGID_12_" d="M248.62,528.84h-18.48c-0.5,0-0.9-0.4-0.9-0.9V499.7c0-0.5,0.4-0.9,0.9-0.9h6.37c0.5,0,0.9,0.4,0.9,0.9
						v21.78h11.21c0.5,0,0.9,0.4,0.9,0.9v5.57C249.52,528.44,249.12,528.84,248.62,528.84z M231.04,527.05h16.68v-3.77h-11.21
						c-0.5,0-0.9-0.4-0.9-0.9V500.6h-4.58V527.05z"/>
				</defs>
				<use xlink:href="#SVGID_12_"  style="overflow:visible;fill:#FFFFFF;"/>
				<clipPath id="SVGID_13_">
					<use xlink:href="#SVGID_12_"  style="overflow:visible;"/>
				</clipPath>
				<rect x="231.04" y="500.6" class="st7" width="0.46" height="26.45"/>
				<rect x="231.5" y="500.6" class="st7" width="2.25" height="26.45"/>
				<rect x="233.75" y="500.6" class="st7" width="2.25" height="26.45"/>
				<rect x="236.01" y="500.6" class="st7" width="2.25" height="26.45"/>
				<rect x="238.26" y="500.6" class="st7" width="2.25" height="26.45"/>
				<rect x="240.51" y="500.6" class="st7" width="2.25" height="26.45"/>
				<rect x="242.76" y="500.6" class="st7" width="2.25" height="26.45"/>
				<rect x="245.02" y="500.6" class="st7" width="2.25" height="26.45"/>
				<rect x="247.27" y="500.6" class="st7" width="0.46" height="26.45"/>
				<path class="st7" d="M229.25,498.81v30.03V498.81z"/>
				<rect x="229.25" y="498.81" class="st7" width="2.25" height="30.03"/>
				<rect x="231.5" y="498.81" class="st7" width="2.25" height="30.03"/>
				<rect x="233.75" y="498.81" class="st7" width="2.25" height="30.03"/>
				<rect x="236.01" y="498.81" class="st7" width="2.25" height="30.03"/>
				<rect x="238.26" y="498.81" class="st7" width="2.25" height="30.03"/>
				<rect x="240.51" y="498.81" class="st7" width="2.25" height="30.03"/>
				<rect x="242.76" y="498.81" class="st7" width="2.25" height="30.03"/>
				<rect x="245.02" y="498.81" class="st7" width="2.25" height="30.03"/>
				<rect x="247.27" y="498.81" class="st7" width="2.25" height="30.03"/>
				<path class="st7" d="M249.52,528.84v-30.03V528.84z"/>
			</g>
		</g>
	</g>
	<g>
		<g>
			<defs>
				<path id="SVGID_14_" d="M292.4,527.95l-2.22-5.49h-13.07l-2.22,5.49h-6.58l12.26-28.24h6.58l12.06,28.24H292.4z M279.21,517.34
					h8.92l-4.44-10.97L279.21,517.34z"/>
			</defs>
			<use xlink:href="#SVGID_14_"  style="overflow:visible;fill:#FFFFFF;"/>
			<clipPath id="SVGID_15_">
				<use xlink:href="#SVGID_14_"  style="overflow:visible;"/>
			</clipPath>
			<g class="st8">
				<rect x="279.21" y="506.36" class="st1" width="2.84" height="10.97"/>
			</g>
			<g class="st8">
				<rect x="282.05" y="506.36" class="st1" width="3.43" height="10.97"/>
			</g>
			<g class="st8">
				<rect x="285.48" y="506.36" class="st1" width="2.64" height="10.97"/>
			</g>
			<g class="st8">
				<path class="st1" d="M268.31,499.7v28.24V499.7z"/>
			</g>
			<g class="st8">
				<rect x="268.31" y="499.7" class="st1" width="3.43" height="28.24"/>
			</g>
			<g class="st8">
				<rect x="271.75" y="499.7" class="st1" width="3.43" height="28.24"/>
			</g>
			<g class="st8">
				<rect x="275.18" y="499.7" class="st1" width="3.43" height="28.24"/>
			</g>
			<g class="st8">
				<rect x="278.61" y="499.7" class="st1" width="3.43" height="28.24"/>
			</g>
			<g class="st8">
				<rect x="282.05" y="499.7" class="st1" width="3.43" height="28.24"/>
			</g>
			<g class="st8">
				<rect x="285.48" y="499.7" class="st1" width="3.43" height="28.24"/>
			</g>
			<g class="st8">
				<rect x="288.92" y="499.7" class="st1" width="3.43" height="28.24"/>
			</g>
			<g class="st8">
				<rect x="292.35" y="499.7" class="st1" width="3.43" height="28.24"/>
			</g>
			<g class="st8">
				<rect x="295.78" y="499.7" class="st1" width="3.43" height="28.24"/>
			</g>
			<g class="st8">
				<path class="st1" d="M299.22,527.95V499.7V527.95z"/>
			</g>
		</g>
		<g>
			<g>
				<defs>
					<path id="SVGID_16_" d="M299.22,528.84h-6.82c-0.37,0-0.69-0.22-0.83-0.56l-1.99-4.93h-11.86l-1.99,4.93
						c-0.14,0.34-0.47,0.56-0.83,0.56h-6.58c-0.3,0-0.58-0.15-0.75-0.4c-0.17-0.25-0.19-0.57-0.07-0.85l12.26-28.24
						c0.14-0.33,0.47-0.54,0.82-0.54h6.58c0.36,0,0.68,0.21,0.82,0.54l12.06,28.24c0.12,0.28,0.09,0.59-0.08,0.85
						C299.8,528.69,299.52,528.84,299.22,528.84z M293,527.05h4.86l-11.3-26.45h-5.4l-11.49,26.45h4.6l1.99-4.93
						c0.14-0.34,0.47-0.56,0.83-0.56h13.07c0.37,0,0.69,0.22,0.83,0.56L293,527.05z M288.12,518.23h-8.92c-0.3,0-0.58-0.15-0.74-0.4
						c-0.17-0.25-0.2-0.56-0.09-0.84l4.48-10.97c0.14-0.34,0.47-0.56,0.83-0.56c0,0,0,0,0,0c0.36,0,0.69,0.22,0.83,0.56l4.44,10.97
						c0.11,0.28,0.08,0.59-0.09,0.84C288.7,518.08,288.42,518.23,288.12,518.23z M280.54,516.44h6.25l-3.11-7.7L280.54,516.44z"/>
				</defs>
				<use xlink:href="#SVGID_16_"  style="overflow:visible;fill:#FFFFFF;"/>
				<clipPath id="SVGID_17_">
					<use xlink:href="#SVGID_16_"  style="overflow:visible;"/>
				</clipPath>
				<rect x="280.54" y="508.74" class="st9" width="1.41" height="7.7"/>
				<rect x="281.95" y="508.74" class="st9" width="3.63" height="7.7"/>
				<rect x="285.58" y="508.74" class="st9" width="1.21" height="7.7"/>
				<rect x="278.26" y="505.47" class="st9" width="0.05" height="12.77"/>
				<rect x="278.32" y="505.47" class="st9" width="3.63" height="12.77"/>
				<rect x="281.95" y="505.47" class="st9" width="3.63" height="12.77"/>
				<rect x="285.58" y="505.47" class="st9" width="3.48" height="12.77"/>
				<rect x="269.68" y="500.6" class="st9" width="1.37" height="26.45"/>
				<rect x="271.05" y="500.6" class="st9" width="3.63" height="26.45"/>
				<rect x="274.68" y="500.6" class="st9" width="3.63" height="26.45"/>
				<rect x="278.32" y="500.6" class="st9" width="3.63" height="26.45"/>
				<rect x="281.95" y="500.6" class="st9" width="3.63" height="26.45"/>
				<rect x="285.58" y="500.6" class="st9" width="3.63" height="26.45"/>
				<rect x="289.21" y="500.6" class="st9" width="3.63" height="26.45"/>
				<rect x="292.85" y="500.6" class="st9" width="3.63" height="26.45"/>
				<rect x="296.48" y="500.6" class="st9" width="1.38" height="26.45"/>
				<rect x="267.37" y="498.81" class="st9" width="0.05" height="30.03"/>
				<rect x="267.42" y="498.81" class="st9" width="3.63" height="30.03"/>
				<rect x="271.05" y="498.81" class="st9" width="3.63" height="30.03"/>
				<rect x="274.68" y="498.81" class="st9" width="3.63" height="30.03"/>
				<rect x="278.32" y="498.81" class="st9" width="3.63" height="30.03"/>
				<rect x="281.95" y="498.81" class="st9" width="3.63" height="30.03"/>
				<rect x="285.58" y="498.81" class="st9" width="3.63" height="30.03"/>
				<rect x="289.21" y="498.81" class="st9" width="3.63" height="30.03"/>
				<rect x="292.85" y="498.81" class="st9" width="3.63" height="30.03"/>
				<rect x="296.48" y="498.81" class="st9" width="3.63" height="30.03"/>
				<rect x="300.11" y="498.81" class="st9" width="0.05" height="30.03"/>
			</g>
		</g>
	</g>
	<g>
		<g>
			<defs>
				<path id="SVGID_18_" d="M342.87,499.7l-10.29,19.12v9.12h-6.37v-8.96l-10.45-19.28h6.41l7.22,12.67l7.06-12.67H342.87z"/>
			</defs>
			<use xlink:href="#SVGID_18_"  style="overflow:visible;fill:#FFFFFF;"/>
			<clipPath id="SVGID_19_">
				<use xlink:href="#SVGID_18_"  style="overflow:visible;"/>
			</clipPath>
			<g class="st10">
				<path class="st1" d="M315.76,499.7v28.24V499.7z"/>
			</g>
			<g class="st10">
				<rect x="315.76" y="499.7" class="st1" width="3.01" height="28.24"/>
			</g>
			<g class="st10">
				<rect x="318.77" y="499.7" class="st1" width="3.01" height="28.24"/>
			</g>
			<g class="st10">
				<rect x="321.78" y="499.7" class="st1" width="3.01" height="28.24"/>
			</g>
			<g class="st10">
				<rect x="324.8" y="499.7" class="st1" width="3.01" height="28.24"/>
			</g>
			<g class="st10">
				<rect x="327.81" y="499.7" class="st1" width="3.01" height="28.24"/>
			</g>
			<g class="st10">
				<rect x="330.82" y="499.7" class="st1" width="3.01" height="28.24"/>
			</g>
			<g class="st10">
				<rect x="333.83" y="499.7" class="st1" width="3.01" height="28.24"/>
			</g>
			<g class="st10">
				<rect x="336.85" y="499.7" class="st1" width="3.01" height="28.24"/>
			</g>
			<g class="st10">
				<rect x="339.86" y="499.7" class="st1" width="3.01" height="28.24"/>
			</g>
			<g class="st10">
				<path class="st1" d="M342.87,527.95V499.7V527.95z"/>
			</g>
		</g>
		<g>
			<g>
				<defs>
					<path id="SVGID_20_" d="M332.58,528.84h-6.37c-0.5,0-0.9-0.4-0.9-0.9v-8.73l-10.34-19.08c-0.15-0.28-0.14-0.61,0.02-0.89
						c0.16-0.27,0.45-0.44,0.77-0.44h6.41c0.32,0,0.62,0.17,0.78,0.45l6.43,11.29l6.29-11.28c0.16-0.28,0.46-0.46,0.78-0.46h6.41
						c0.32,0,0.61,0.17,0.77,0.44c0.16,0.27,0.17,0.61,0.02,0.88l-10.18,18.92v8.89C333.48,528.44,333.08,528.84,332.58,528.84z
						 M327.1,527.05h4.58v-8.22c0-0.15,0.04-0.29,0.11-0.42l9.58-17.8h-4.39l-6.8,12.21c-0.16,0.28-0.46,0.46-0.78,0.46c0,0,0,0,0,0
						c-0.32,0-0.62-0.17-0.78-0.45l-6.96-12.22h-4.39l9.73,17.96c0.07,0.13,0.11,0.28,0.11,0.43V527.05z"/>
				</defs>
				<use xlink:href="#SVGID_20_"  style="overflow:visible;fill:#FFFFFF;"/>
				<clipPath id="SVGID_21_">
					<use xlink:href="#SVGID_20_"  style="overflow:visible;"/>
				</clipPath>
				<rect x="317.26" y="500.6" class="st11" width="0.81" height="26.45"/>
				<rect x="318.07" y="500.6" class="st11" width="3.21" height="26.45"/>
				<rect x="321.28" y="500.6" class="st11" width="3.21" height="26.45"/>
				<rect x="324.5" y="500.6" class="st11" width="3.21" height="26.45"/>
				<rect x="327.71" y="500.6" class="st11" width="3.21" height="26.45"/>
				<rect x="330.92" y="500.6" class="st11" width="3.21" height="26.45"/>
				<rect x="334.13" y="500.6" class="st11" width="3.21" height="26.45"/>
				<rect x="337.34" y="500.6" class="st11" width="3.21" height="26.45"/>
				<rect x="340.55" y="500.6" class="st11" width="0.81" height="26.45"/>
				<rect x="314.82" y="498.81" class="st11" width="0.04" height="30.03"/>
				<rect x="314.86" y="498.81" class="st11" width="3.21" height="30.03"/>
				<rect x="318.07" y="498.81" class="st11" width="3.21" height="30.03"/>
				<rect x="321.28" y="498.81" class="st11" width="3.21" height="30.03"/>
				<rect x="324.5" y="498.81" class="st11" width="3.21" height="30.03"/>
				<rect x="327.71" y="498.81" class="st11" width="3.21" height="30.03"/>
				<rect x="330.92" y="498.81" class="st11" width="3.21" height="30.03"/>
				<rect x="334.13" y="498.81" class="st11" width="3.21" height="30.03"/>
				<rect x="337.34" y="498.81" class="st11" width="3.21" height="30.03"/>
				<rect x="340.55" y="498.81" class="st11" width="3.21" height="30.03"/>
				<rect x="343.77" y="498.81" class="st11" width="0.04" height="30.03"/>
			</g>
		</g>
	</g>
	<g>
		<g>
			<defs>
				<path id="SVGID_22_" d="M378.8,505.45c-1.63-0.52-3.02-0.79-4.18-0.79c-1.1,0-1.98,0.2-2.62,0.61c-0.65,0.4-0.97,1-0.97,1.78
					c0,1,0.46,1.76,1.39,2.28c0.93,0.52,2.36,1.07,4.3,1.63c1.94,0.56,3.53,1.13,4.78,1.69c1.25,0.57,2.32,1.41,3.21,2.54
					c0.89,1.13,1.33,2.62,1.33,4.48c0,1.8-0.48,3.36-1.43,4.66c-0.96,1.3-2.27,2.29-3.93,2.97c-1.67,0.67-3.56,1.01-5.69,1.01
					c-2.29,0-4.53-0.4-6.74-1.21c-2.21-0.81-4.12-1.91-5.73-3.31l2.54-5.2c1.43,1.29,3.07,2.33,4.92,3.11
					c1.86,0.78,3.55,1.17,5.08,1.17c1.32,0,2.35-0.24,3.09-0.73c0.74-0.48,1.11-1.18,1.11-2.1c0-0.73-0.25-1.32-0.75-1.8
					c-0.5-0.47-1.13-0.85-1.9-1.15c-0.77-0.3-1.82-0.63-3.17-1.01c-1.94-0.54-3.52-1.08-4.74-1.61c-1.22-0.54-2.28-1.36-3.17-2.46
					c-0.89-1.1-1.33-2.57-1.33-4.4c0-1.69,0.46-3.18,1.37-4.46c0.91-1.28,2.19-2.26,3.83-2.95c1.64-0.69,3.55-1.03,5.73-1.03
					c1.94,0,3.85,0.28,5.73,0.85c1.88,0.57,3.55,1.32,5,2.26l-2.46,5.29C381.96,506.68,380.42,505.98,378.8,505.45z"/>
			</defs>
			<use xlink:href="#SVGID_22_"  style="overflow:visible;fill:#FFFFFF;"/>
			<clipPath id="SVGID_23_">
				<use xlink:href="#SVGID_22_"  style="overflow:visible;"/>
			</clipPath>
			<g class="st12">
				<path class="st1" d="M362.52,499.18v29.13V499.18z"/>
			</g>
			<g class="st12">
				<rect x="362.52" y="499.18" class="st1" width="2.61" height="29.13"/>
			</g>
			<g class="st12">
				<rect x="365.13" y="499.18" class="st1" width="2.61" height="29.13"/>
			</g>
			<g class="st12">
				<rect x="367.74" y="499.18" class="st1" width="2.61" height="29.13"/>
			</g>
			<g class="st12">
				<rect x="370.36" y="499.18" class="st1" width="2.61" height="29.13"/>
			</g>
			<g class="st12">
				<rect x="372.97" y="499.18" class="st1" width="2.61" height="29.13"/>
			</g>
			<g class="st12">
				<rect x="375.58" y="499.18" class="st1" width="2.61" height="29.13"/>
			</g>
			<g class="st12">
				<rect x="378.2" y="499.18" class="st1" width="2.61" height="29.13"/>
			</g>
			<g class="st12">
				<rect x="380.81" y="499.18" class="st1" width="2.61" height="29.13"/>
			</g>
			<g class="st12">
				<rect x="383.43" y="499.18" class="st1" width="2.61" height="29.13"/>
			</g>
			<g class="st12">
				<path class="st1" d="M386.04,528.31v-29.13V528.31z"/>
			</g>
		</g>
		<g>
			<g>
				<defs>
					<path id="SVGID_24_" d="M374.98,529.21c-2.38,0-4.75-0.43-7.05-1.26c-2.3-0.84-4.32-2.01-6.01-3.47
						c-0.31-0.27-0.4-0.71-0.22-1.07l2.54-5.2c0.12-0.25,0.36-0.43,0.64-0.49c0.28-0.05,0.56,0.03,0.77,0.22
						c1.34,1.22,2.91,2.21,4.67,2.94c1.74,0.73,3.33,1.1,4.74,1.1c1.13,0,2.01-0.2,2.6-0.58c0.49-0.32,0.7-0.73,0.7-1.35
						c0-0.48-0.15-0.84-0.47-1.14c-0.41-0.39-0.95-0.71-1.6-0.97c-0.74-0.28-1.77-0.61-3.09-0.98c-1.97-0.55-3.6-1.1-4.86-1.66
						c-1.35-0.59-2.53-1.51-3.51-2.72c-1.01-1.26-1.53-2.93-1.53-4.96c0-1.88,0.52-3.55,1.54-4.98c1.01-1.41,2.43-2.5,4.22-3.25
						c1.74-0.73,3.79-1.1,6.07-1.1c2.01,0,4.03,0.3,5.99,0.88c1.96,0.59,3.72,1.38,5.23,2.37c0.38,0.24,0.51,0.73,0.33,1.13
						l-2.46,5.29c-0.11,0.23-0.31,0.41-0.55,0.48c-0.24,0.07-0.51,0.04-0.73-0.09c-1.39-0.85-2.87-1.53-4.43-2.03l0,0
						c-2.88-0.93-4.98-0.94-6.05-0.27c-0.38,0.24-0.55,0.54-0.55,1.02c0,0.67,0.29,1.13,0.94,1.5c0.86,0.49,2.24,1.01,4.11,1.55
						c1.97,0.57,3.62,1.16,4.9,1.74c1.38,0.62,2.57,1.57,3.54,2.8c1.01,1.29,1.52,2.98,1.52,5.03c0,1.99-0.54,3.73-1.6,5.19
						c-1.05,1.44-2.51,2.54-4.32,3.27C379.24,528.84,377.21,529.21,374.98,529.21z M363.63,523.55c1.41,1.12,3.07,2.03,4.92,2.71
						c2.1,0.77,4.26,1.16,6.43,1.16c2,0,3.8-0.32,5.35-0.94c1.5-0.61,2.69-1.5,3.55-2.66c0.85-1.16,1.26-2.51,1.26-4.13
						c0-1.64-0.38-2.96-1.14-3.92c-0.79-1.01-1.76-1.78-2.87-2.28c-1.21-0.54-2.78-1.1-4.66-1.65c-2.02-0.59-3.49-1.15-4.49-1.71
						c-1.21-0.68-1.85-1.74-1.85-3.06c0-1.09,0.48-1.97,1.39-2.54c1.56-0.97,4.09-1.02,7.55,0.09l0,0c1.37,0.44,2.69,1.01,3.95,1.7
						l1.71-3.67c-1.22-0.71-2.6-1.29-4.11-1.75c-1.79-0.54-3.63-0.81-5.47-0.81c-2.05,0-3.86,0.32-5.38,0.96
						c-1.48,0.62-2.64,1.51-3.45,2.64c-0.81,1.13-1.2,2.42-1.2,3.94c0,1.61,0.38,2.9,1.13,3.84c0.79,0.98,1.74,1.73,2.83,2.2
						c1.18,0.52,2.73,1.05,4.62,1.57c1.37,0.38,2.46,0.73,3.25,1.04c0.87,0.34,1.61,0.79,2.19,1.34c0.68,0.64,1.03,1.47,1.03,2.45
						c0,1.21-0.52,2.2-1.51,2.85c-0.89,0.58-2.09,0.87-3.58,0.87c-1.65,0-3.47-0.42-5.43-1.24c-1.56-0.66-2.99-1.5-4.27-2.51
						L363.63,523.55z"/>
				</defs>
				<use xlink:href="#SVGID_24_"  style="overflow:visible;fill:#FFFFFF;"/>
				<clipPath id="SVGID_25_">
					<use xlink:href="#SVGID_24_"  style="overflow:visible;"/>
				</clipPath>
				<rect x="363.63" y="500.08" class="st13" width="0.8" height="27.34"/>
				<rect x="364.43" y="500.08" class="st13" width="2.81" height="27.34"/>
				<rect x="367.25" y="500.08" class="st13" width="2.81" height="27.34"/>
				<rect x="370.06" y="500.08" class="st13" width="2.81" height="27.34"/>
				<rect x="372.87" y="500.08" class="st13" width="2.81" height="27.34"/>
				<rect x="375.68" y="500.08" class="st13" width="2.81" height="27.34"/>
				<rect x="378.5" y="500.08" class="st13" width="2.81" height="27.34"/>
				<rect x="381.31" y="500.08" class="st13" width="2.81" height="27.34"/>
				<rect x="384.12" y="500.08" class="st13" width="1.02" height="27.34"/>
				<rect x="361.53" y="498.28" class="st13" width="0.09" height="30.92"/>
				<rect x="361.62" y="498.28" class="st13" width="2.81" height="30.92"/>
				<rect x="364.43" y="498.28" class="st13" width="2.81" height="30.92"/>
				<rect x="367.25" y="498.28" class="st13" width="2.81" height="30.92"/>
				<rect x="370.06" y="498.28" class="st13" width="2.81" height="30.92"/>
				<rect x="372.87" y="498.28" class="st13" width="2.81" height="30.92"/>
				<rect x="375.68" y="498.28" class="st13" width="2.81" height="30.92"/>
				<rect x="378.5" y="498.28" class="st13" width="2.81" height="30.92"/>
				<rect x="381.31" y="498.28" class="st13" width="2.81" height="30.92"/>
				<rect x="384.12" y="498.28" class="st13" width="2.81" height="30.92"/>
				<path class="st13" d="M386.94,529.21v-30.92V529.21z"/>
			</g>
		</g>
	</g>
	<g>
		<g>
			<defs>
				<path id="SVGID_26_" d="M409.48,499.7h6.37v28.24h-6.37V499.7z"/>
			</defs>
			<use xlink:href="#SVGID_26_"  style="overflow:visible;fill:#FFFFFF;"/>
			<clipPath id="SVGID_27_">
				<use xlink:href="#SVGID_26_"  style="overflow:visible;"/>
			</clipPath>
			<g class="st14">
				<path class="st1" d="M409.48,499.7v28.24V499.7z"/>
			</g>
			<g class="st14">
				<rect x="409.48" y="499.7" class="st1" width="0.71" height="28.24"/>
			</g>
			<g class="st14">
				<rect x="410.19" y="499.7" class="st1" width="0.71" height="28.24"/>
			</g>
			<g class="st14">
				<rect x="410.9" y="499.7" class="st1" width="0.71" height="28.24"/>
			</g>
			<g class="st14">
				<rect x="411.6" y="499.7" class="st1" width="0.71" height="28.24"/>
			</g>
			<g class="st14">
				<rect x="412.31" y="499.7" class="st1" width="0.71" height="28.24"/>
			</g>
			<g class="st14">
				<rect x="413.02" y="499.7" class="st1" width="0.71" height="28.24"/>
			</g>
			<g class="st14">
				<rect x="413.73" y="499.7" class="st1" width="0.71" height="28.24"/>
			</g>
			<g class="st14">
				<rect x="414.44" y="499.7" class="st1" width="0.71" height="28.24"/>
			</g>
			<g class="st14">
				<rect x="415.15" y="499.7" class="st1" width="0.71" height="28.24"/>
			</g>
			<g class="st14">
				<path class="st1" d="M415.85,527.95V499.7V527.95z"/>
			</g>
		</g>
		<g>
			<g>
				<defs>
					<path id="SVGID_28_" d="M415.85,528.84h-6.37c-0.5,0-0.9-0.4-0.9-0.9V499.7c0-0.5,0.4-0.9,0.9-0.9h6.37c0.5,0,0.9,0.4,0.9,0.9
						v28.24C416.75,528.44,416.35,528.84,415.85,528.84z M410.38,527.05h4.58V500.6h-4.58V527.05z"/>
				</defs>
				<use xlink:href="#SVGID_28_"  style="overflow:visible;fill:#FFFFFF;"/>
				<clipPath id="SVGID_29_">
					<use xlink:href="#SVGID_28_"  style="overflow:visible;"/>
				</clipPath>
				<rect x="410.38" y="500.6" class="st15" width="0.02" height="26.45"/>
				<rect x="410.4" y="500.6" class="st15" width="0.91" height="26.45"/>
				<rect x="411.31" y="500.6" class="st15" width="0.91" height="26.45"/>
				<rect x="412.21" y="500.6" class="st15" width="0.91" height="26.45"/>
				<rect x="413.12" y="500.6" class="st15" width="0.91" height="26.45"/>
				<rect x="414.03" y="500.6" class="st15" width="0.91" height="26.45"/>
				<rect x="414.94" y="500.6" class="st15" width="0.02" height="26.45"/>
				<path class="st15" d="M408.58,498.81v30.03V498.81z"/>
				<rect x="408.58" y="498.81" class="st15" width="0.91" height="30.03"/>
				<rect x="409.49" y="498.81" class="st15" width="0.91" height="30.03"/>
				<rect x="410.4" y="498.81" class="st15" width="0.91" height="30.03"/>
				<rect x="411.31" y="498.81" class="st15" width="0.91" height="30.03"/>
				<rect x="412.21" y="498.81" class="st15" width="0.91" height="30.03"/>
				<rect x="413.12" y="498.81" class="st15" width="0.91" height="30.03"/>
				<rect x="414.03" y="498.81" class="st15" width="0.91" height="30.03"/>
				<rect x="414.94" y="498.81" class="st15" width="0.91" height="30.03"/>
				<rect x="415.84" y="498.81" class="st15" width="0.91" height="30.03"/>
				<path class="st15" d="M416.75,528.84v-30.03V528.84z"/>
			</g>
		</g>
	</g>
	<g>
		<g>
			<defs>
				<path id="SVGID_30_" d="M461.93,527.95l-2.22-5.49h-13.07l-2.22,5.49h-6.58l12.27-28.24h6.58l12.06,28.24H461.93z
					 M448.73,517.34h8.92l-4.44-10.97L448.73,517.34z"/>
			</defs>
			<use xlink:href="#SVGID_30_"  style="overflow:visible;fill:#FFFFFF;"/>
			<clipPath id="SVGID_31_">
				<use xlink:href="#SVGID_30_"  style="overflow:visible;"/>
			</clipPath>
			<g class="st16">
				<rect x="448.73" y="506.36" class="st1" width="2.84" height="10.97"/>
			</g>
			<g class="st16">
				<rect x="451.58" y="506.36" class="st1" width="3.43" height="10.97"/>
			</g>
			<g class="st16">
				<rect x="455.01" y="506.36" class="st1" width="2.64" height="10.97"/>
			</g>
			<g class="st16">
				<path class="st1" d="M437.84,499.7v28.24V499.7z"/>
			</g>
			<g class="st16">
				<rect x="437.84" y="499.7" class="st1" width="3.43" height="28.24"/>
			</g>
			<g class="st16">
				<rect x="441.28" y="499.7" class="st1" width="3.43" height="28.24"/>
			</g>
			<g class="st16">
				<rect x="444.71" y="499.7" class="st1" width="3.43" height="28.24"/>
			</g>
			<g class="st16">
				<rect x="448.14" y="499.7" class="st1" width="3.43" height="28.24"/>
			</g>
			<g class="st16">
				<rect x="451.58" y="499.7" class="st1" width="3.43" height="28.24"/>
			</g>
			<g class="st16">
				<rect x="455.01" y="499.7" class="st1" width="3.43" height="28.24"/>
			</g>
			<g class="st16">
				<rect x="458.44" y="499.7" class="st1" width="3.43" height="28.24"/>
			</g>
			<g class="st16">
				<rect x="461.88" y="499.7" class="st1" width="3.43" height="28.24"/>
			</g>
			<g class="st16">
				<rect x="465.31" y="499.7" class="st1" width="3.43" height="28.24"/>
			</g>
			<g class="st16">
				<path class="st1" d="M468.75,527.95V499.7V527.95z"/>
			</g>
		</g>
		<g>
			<g>
				<defs>
					<path id="SVGID_32_" d="M468.75,528.84h-6.82c-0.37,0-0.69-0.22-0.83-0.56l-1.99-4.93h-11.86l-1.99,4.93
						c-0.14,0.34-0.47,0.56-0.83,0.56h-6.58c-0.3,0-0.58-0.15-0.75-0.4c-0.17-0.25-0.19-0.57-0.07-0.85l12.27-28.24
						c0.14-0.33,0.46-0.54,0.82-0.54h6.58c0.36,0,0.68,0.21,0.82,0.54l12.06,28.24c0.12,0.28,0.09,0.59-0.08,0.85
						C469.33,528.69,469.05,528.84,468.75,528.84z M462.53,527.05h4.86l-11.3-26.45h-5.4l-11.49,26.45h4.6l1.99-4.93
						c0.14-0.34,0.47-0.56,0.83-0.56h13.07c0.37,0,0.69,0.22,0.83,0.56L462.53,527.05z M457.65,518.23h-8.92
						c-0.3,0-0.58-0.15-0.74-0.4c-0.17-0.25-0.2-0.56-0.09-0.84l4.48-10.97c0.14-0.34,0.47-0.56,0.83-0.56c0,0,0,0,0,0
						c0.37,0,0.69,0.22,0.83,0.56l4.44,10.97c0.11,0.28,0.08,0.59-0.09,0.84C458.23,518.08,457.95,518.23,457.65,518.23z
						 M450.07,516.44h6.25l-3.11-7.7L450.07,516.44z"/>
				</defs>
				<use xlink:href="#SVGID_32_"  style="overflow:visible;fill:#FFFFFF;"/>
				<clipPath id="SVGID_33_">
					<use xlink:href="#SVGID_32_"  style="overflow:visible;"/>
				</clipPath>
				<rect x="450.07" y="508.74" class="st17" width="1.41" height="7.7"/>
				<rect x="451.48" y="508.74" class="st17" width="3.63" height="7.7"/>
				<rect x="455.11" y="508.74" class="st17" width="1.21" height="7.7"/>
				<rect x="447.79" y="505.47" class="st17" width="0.05" height="12.77"/>
				<rect x="447.84" y="505.47" class="st17" width="3.63" height="12.77"/>
				<rect x="451.48" y="505.47" class="st17" width="3.63" height="12.77"/>
				<rect x="455.11" y="505.47" class="st17" width="3.48" height="12.77"/>
				<rect x="439.21" y="500.6" class="st17" width="1.37" height="26.45"/>
				<rect x="440.58" y="500.6" class="st17" width="3.63" height="26.45"/>
				<rect x="444.21" y="500.6" class="st17" width="3.63" height="26.45"/>
				<rect x="447.84" y="500.6" class="st17" width="3.63" height="26.45"/>
				<rect x="451.48" y="500.6" class="st17" width="3.63" height="26.45"/>
				<rect x="455.11" y="500.6" class="st17" width="3.63" height="26.45"/>
				<rect x="458.74" y="500.6" class="st17" width="3.63" height="26.45"/>
				<rect x="462.38" y="500.6" class="st17" width="3.63" height="26.45"/>
				<rect x="466.01" y="500.6" class="st17" width="1.38" height="26.45"/>
				<rect x="436.9" y="498.81" class="st17" width="0.05" height="30.03"/>
				<rect x="436.94" y="498.81" class="st17" width="3.63" height="30.03"/>
				<rect x="440.58" y="498.81" class="st17" width="3.63" height="30.03"/>
				<rect x="444.21" y="498.81" class="st17" width="3.63" height="30.03"/>
				<rect x="447.84" y="498.81" class="st17" width="3.63" height="30.03"/>
				<rect x="451.48" y="498.81" class="st17" width="3.63" height="30.03"/>
				<rect x="455.11" y="498.81" class="st17" width="3.63" height="30.03"/>
				<rect x="458.74" y="498.81" class="st17" width="3.63" height="30.03"/>
				<rect x="462.38" y="498.81" class="st17" width="3.63" height="30.03"/>
				<rect x="466.01" y="498.81" class="st17" width="3.63" height="30.03"/>
				<rect x="469.64" y="498.81" class="st17" width="0.05" height="30.03"/>
			</g>
		</g>
	</g>
</g>
</svg>
